PathFileType	4	(X/Y/Z)	TVC_39_Cal_03_0_static_RCNL2025.trc
DataRate	CameraRate	NumFrames	NumMarkers	Units	OrigDataRate	OrigDataStartFrame	OrigNumFrames
100	100	4	27	mm	100	37	292
Frame#	Time	R_Shoulder			L_Shoulder			C7			J_Notch			R_Elbow			L_Elbow			R_Wrist			L_Wrist			R_Asis			L_Asis			R_Psis			L_Psis			Sacral			Thoracic			Sternum			R_Thigh_Lateral			R_Knee_Lateral			R_Shank_Lateral			R_Ankle_Lateral			R_Heel			R_Toe			L_Thigh_Lateral			L_Knee_Lateral			L_Shank_Lateral			L_Ankle_Lateral			L_Heel			L_Toe		
		X1	Y1	Z1	X2	Y2	Z2	X3	Y3	Z3	X4	Y4	Z4	X5	Y5	Z5	X6	Y6	Z6	X7	Y7	Z7	X8	Y8	Z8	X9	Y9	Z9	X10	Y10	Z10	X11	Y11	Z11	X12	Y12	Z12	X13	Y13	Z13	X14	Y14	Z14	X15	Y15	Z15	X16	Y16	Z16	X17	Y17	Z17	X18	Y18	Z18	X19	Y19	Z19	X20	Y20	Z20	X21	Y21	Z21	X22	Y22	Z22	X23	Y23	Z23	X24	Y24	Z24	X25	Y25	Z25	X26	Y26	Z26	X27	Y27	Z27
37	0.36000000	-191.075500	1479.245728	6.061554	-167.200699	1470.979858	-379.083374	-227.163605	1553.835205	-194.153732	-87.588089	1421.115723	-188.243439	-160.717758	1143.586182	92.176453	-180.625137	1156.590454	-485.641510	-92.864029	906.506866	22.288137	-153.896317	897.376678	-496.185074	-158.987381	941.253418	-29.878199	-121.194138	941.431641	-321.736023	-345.450348	987.148254	-142.340439	-330.693085	981.765869	-249.358292	-338.071716	984.457062	-195.849365	-330.054840	1226.707886	-201.087494	-50.671841	1260.920410	-168.526688	-222.739899	746.510010	43.781868	-219.163528	466.728241	-15.255643	-267.595490	303.655518	36.012611	-270.855560	77.821007	-58.227055	-311.725250	60.416882	-112.354279	-123.736603	46.899002	-49.415535	-197.936325	699.522705	-406.599915	-228.304092	474.162476	-346.782806	-246.020264	343.231140	-388.255646	-261.256073	76.075447	-298.972656	-298.905609	57.995846	-238.327194	-117.167290	43.395241	-319.485016
38	0.37000000	-190.891159	1479.185181	6.020934	-167.100479	1470.973267	-379.069672	-226.887497	1553.762329	-194.117508	-87.499763	1421.109131	-188.203720	-160.600189	1143.488770	92.169312	-180.428696	1156.568237	-485.442719	-92.798828	906.508423	22.196298	-153.766655	897.291260	-496.342865	-159.103577	941.284180	-29.787350	-121.158371	941.496094	-321.780396	-345.432343	987.155029	-142.367493	-330.627197	981.773926	-249.374054	-338.029770	984.464478	-195.870773	-329.933899	1226.720947	-201.053589	-50.503239	1260.889404	-168.523849	-222.742706	746.495361	43.806946	-219.246155	466.649536	-15.246345	-267.683777	303.635162	36.025333	-270.779266	77.741707	-58.292519	-311.652771	60.319641	-112.319366	-123.697884	46.916649	-49.432053	-197.837448	699.550781	-406.630463	-228.229385	474.204681	-346.682983	-246.023392	343.253906	-388.298981	-261.269165	76.096458	-298.986633	-298.920624	57.923000	-238.285507	-116.959198	43.640820	-319.611237
39	0.38000000	-190.781586	1479.210815	6.091572	-166.939835	1471.096924	-379.140381	-226.929230	1553.766602	-194.207840	-87.330879	1421.051270	-188.229370	-160.550797	1143.443481	92.152779	-180.321548	1156.459351	-485.495087	-92.775265	906.497803	22.199450	-153.618584	897.425842	-496.392609	-159.095917	941.307007	-29.685225	-120.972298	941.284363	-321.628540	-345.326874	987.088623	-142.317841	-330.545807	981.757507	-249.304733	-337.936340	984.423065	-195.811287	-329.948914	1226.753052	-201.024017	-50.334610	1260.899780	-168.586136	-222.746414	746.484558	43.903629	-219.234512	466.646271	-15.244180	-267.811523	303.740051	36.145851	-270.753235	77.750809	-58.265339	-311.689117	60.314610	-112.290741	-123.696449	46.921680	-49.433052	-197.878159	699.494202	-406.639771	-228.235275	474.213745	-346.659698	-245.949081	343.187164	-388.162506	-261.278442	76.128380	-298.958069	-298.913574	57.916573	-238.294296	-117.031929	43.610493	-319.626099
40	0.39000000	-190.648438	1479.216064	6.135691	-166.773773	1471.117554	-379.148376	-226.780472	1553.697388	-194.116089	-87.295799	1421.035034	-188.202118	-160.476273	1143.459229	92.140282	-180.138733	1156.648682	-485.337982	-92.774311	906.441162	22.156171	-153.437798	897.425323	-496.549896	-158.969193	941.260864	-29.803947	-121.001961	941.294006	-321.477814	-345.291260	987.085693	-142.325546	-330.493134	981.712280	-249.226868	-337.892197	984.398987	-195.776207	-329.869965	1226.819702	-201.055054	-50.339764	1260.859741	-168.438446	-222.691177	746.447449	43.865875	-219.342087	466.710602	-15.232117	-267.911652	303.642731	36.164661	-270.779266	77.705231	-58.295425	-311.681458	60.328014	-112.340942	-123.813072	46.772373	-49.376610	-197.877167	699.607544	-406.590973	-228.195953	474.203033	-346.634247	-245.839706	343.193237	-388.224792	-261.306030	76.187637	-298.926971	-298.955658	57.964367	-238.357910	-117.155952	43.212959	-319.587341
